# xmcd
#
# Track frame offsets: 
#        150
#        12260
#        33975
#        58960
#        66537
#        79512
#        95440
#        109170
#        118880
#        143630
#        163380
#        176642
#        193217
#        208935
#        228035
#        247735
#        272135
#
# Disc length: 3778 seconds
#
# Revision: 13
# Processed by: cddbd v1.5.2PL0 Copyright (c) Steve Scherf et al.
# Submitted via: ExactAudioCopy v0.99pb4
#
DISCID=f70ec011
DTITLE=Various Artist - Bar classics Vol. 1 - CD 01
DYEAR=2000
DGENRE=Jazz
TTITLE0=Teddy Wilson - Misty
TTITLE1=Count Basie - Li' L Darlin'
TTITLE2=Ben Webster and 'Sweets' Edison - How Long Has This Been Going
TTITLE2=On
TTITLE3=The Ralph Sharon Trio - I Left My Heart In San Francisco
TTITLE4=Illinois Jacquet - Stella By Starlight
TTITLE5=Ted McNabb and Company - Spring Is Here
TTITLE6=Pete Jolly - If I Ruled The World
TTITLE7=Antonio Carlos Jobim - Choro
TTITLE8=Garry Muligan - Inside Impromptu
TTITLE9=Antonio Carlos Jobim - Tereza My Love
TTITLE10=Brown Ellis Manne Previn - I Know You Oh So Well
TTITLE11=The Sax Section - Don't Worry 'Bout Me
TTITLE12=Coleman Hawkins - Michelle
TTITLE13=Ben Webster - My Romance
TTITLE14=Illinois Jacquet - Imagination
TTITLE15=Stan Getz - Misty
TTITLE16=Teddy Wilson - If I Could Be With You One Hour Tonight
EXTD=YEAR: 2000
EXTT0=
EXTT1=
EXTT2=
EXTT3=
EXTT4=
EXTT5=
EXTT6=
EXTT7=
EXTT8=
EXTT9=
EXTT10=
EXTT11=
EXTT12=
EXTT13=
EXTT14=
EXTT15=
EXTT16=
PLAYORDER=
